ffmpeg version N-105290-gbca30570d2-20220116 Copyright (c) 2000-2022 the FFmpeg developers
  built with gcc 11.2.0 (crosstool-NG 1.24.0.498_5075e1f)
  configuration: --prefix=/ffbuild/prefix --pkg-config-flags=--static --pkg-config=pkg-config --cross-prefix=x86_64-w64-mingw32- --arch=x86_64 --target-os=mingw32 --enable-gpl --enable-version3 --disable-debug --disable-w32threads --enable-pthreads --enable-iconv --enable-libxml2 --enable-zlib --enable-libfreetype --enable-libfribidi --enable-gmp --enable-lzma --enable-fontconfig --enable-libvorbis --enable-opencl --disable-libpulse --enable-libvmaf --disable-libxcb --disable-xlib --enable-amf --enable-libaom --enable-avisynth --enable-libdav1d --enable-libdavs2 --disable-libfdk-aac --enable-ffnvcodec --enable-cuda-llvm --enable-frei0r --enable-libgme --enable-libass --enable-libbluray --enable-libmp3lame --enable-libopus --enable-librist --enable-libtheora --enable-libvpx --enable-libwebp --enable-lv2 --enable-libmfx --enable-libopencore-amrnb --enable-libopencore-amrwb --enable-libopenh264 --enable-libopenjpeg --enable-libopenmpt --enable-librav1e --enable-librubberband --enable-schannel --enable-sdl2 --enable-libsoxr --enable-libsrt --enable-libsvtav1 --enable-libtwolame --enable-libuavs3d --disable-libdrm --disable-vaapi --enable-libvidstab --enable-vulkan --enable-libshaderc --enable-libplacebo --enable-libx264 --enable-libx265 --enable-libxavs2 --enable-libxvid --enable-libzimg --enable-libzvbi --extra-cflags=-DLIBTWOLAME_STATIC --extra-cxxflags= --extra-ldflags=-pthread --extra-ldexeflags= --extra-libs=-lgomp --extra-version=20220116
  libavutil      57. 18.100 / 57. 18.100
  libavcodec     59. 20.100 / 59. 20.100
  libavformat    59. 17.101 / 59. 17.101
  libavdevice    59.  5.100 / 59.  5.100
  libavfilter     8. 25.100 /  8. 25.100
  libswscale      6.  5.100 /  6.  5.100
  libswresample   4.  4.100 /  4.  4.100
  libpostproc    56.  4.100 / 56.  4.100
Input #0, image2, from 'C:\Users\user\Documents\GitHub\dynamodb_related\pythonProject\engine\streaming_engine\asset\stream_0\upload_youtube_png_0.png':
  Duration: 00:00:00.04, start: 0.000000, bitrate: N/A
  Stream #0:0: Video: png, rgba(pc), 1348x1263 [SAR 6614:6614 DAR 1348:1263], 25 fps, 25 tbr, 25 tbn
Input #1, mp3, from 'C:\Users\user\Documents\GitHub\dynamodb_related\pythonProject\engine\streaming_engine\asset\audio.mp3':
  Metadata:
    major_brand     : M4A 
    minor_version   : 512
    compatible_brands: isomiso2
    encoder         : Lavf58.19.102
  Duration: 01:33:16.58, start: 0.025057, bitrate: 128 kb/s
  Stream #1:0: Audio: mp3, 44100 Hz, stereo, fltp, 128 kb/s
    Metadata:
      encoder         : Lavc58.34
Stream mapping:
  Stream #0:0 -> #0:0 (png (native) -> h264 (libx264))
  Stream #1:0 -> #0:1 (mp3 (mp3float) -> mp3 (libmp3lame))
Press [q] to stop, [?] for help
[libx264 @ 00000209149996c0] using SAR=1/1
[libx264 @ 00000209149996c0] using cpu capabilities: MMX2 SSE2Fast SSSE3 SSE4.2 AVX FMA3 BMI2 AVX2
[libx264 @ 00000209149996c0] profile High 4:4:4 Predictive, level 4.0, 4:4:4, 8-bit
[libx264 @ 00000209149996c0] 264 - core 164 - H.264/MPEG-4 AVC codec - Copyleft 2003-2021 - http://www.videolan.org/x264.html - options: cabac=0 ref=1 deblock=0:0:0 analyse=0:0 me=dia subme=0 psy=1 psy_rd=1.00:0.00 mixed_ref=0 me_range=16 chroma_me=1 trellis=0 8x8dct=0 cqm=0 deadzone=21,11 fast_pskip=1 chroma_qp_offset=6 threads=9 lookahead_threads=1 sliced_threads=0 nr=0 decimate=1 interlaced=0 bluray_compat=0 constrained_intra=0 bframes=0 weightp=0 keyint=250 keyint_min=25 scenecut=0 intra_refresh=0 rc_lookahead=0 rc=crf mbtree=0 crf=23.0 qcomp=0.60 qpmin=0 qpmax=69 qpstep=4 vbv_maxrate=2000 vbv_bufsize=1000 crf_max=0.0 nal_hrd=none filler=0 ip_ratio=1.40 aq=0
Output #0, flv, to 'rtmp://a.rtmp.youtube.com/live2/kts2-yda5-d5pe-r3me-8uay':
  Metadata:
    encoder         : Lavf59.17.101
  Stream #0:0: Video: h264 ([7][0][0][0] / 0x0007), yuv444p(tv, progressive), 1348x1263 [SAR 1:1 DAR 1348:1263], q=2-31, 2000 kb/s, 25 fps, 1k tbn
    Metadata:
      encoder         : Lavc59.20.100 libx264
    Side data:
      cpb: bitrate max/min/avg: 2000000/0/2000000 buffer size: 1000000 vbv_delay: N/A
  Stream #0:1: Audio: mp3 ([2][0][0][0] / 0x0002), 44100 Hz, stereo, fltp
    Metadata:
      encoder         : Lavc59.20.100 libmp3lame
frame=    1 fps=0.0 q=0.0 size=       0kB time=00:00:00.00 bitrate=N/A speed=   0x    frame=   13 fps=0.0 q=13.0 size=      58kB time=00:00:00.13 bitrate=3621.3kbits/s speed=0.234x    frame=   26 fps= 24 q=18.0 size=     182kB time=00:00:00.62 bitrate=2379.8kbits/s speed=0.586x    frame=   39 fps= 24 q=12.0 size=     203kB time=00:00:01.15 bitrate=1444.4kbits/s speed=0.723x    frame=   52 fps= 25 q=12.0 size=     213kB time=00:00:01.67 bitrate=1045.4kbits/s speed=0.798x    frame=   53 fps= 20 q=12.0 size=     214kB time=00:00:01.72 bitrate=1018.6kbits/s speed=0.662x    frame=   53 fps= 17 q=12.0 size=     214kB time=00:00:01.72 bitrate=1018.6kbits/s speed=0.554x    frame=   67 fps= 19 q=25.0 size=     262kB time=00:00:02.27 bitrate= 944.6kbits/s speed=0.628x    frame=   83 fps= 20 q=12.0 size=     345kB time=00:00:02.90 bitrate= 974.1kbits/s speed=0.703x    frame=   99 fps= 21 q=12.0 size=     387kB time=00:00:03.55 bitrate= 891.8kbits/s speed=0.767x    frame=  115 fps= 22 q=12.0 size=     401kB time=00:00:04.18 bitrate= 785.6kbits/s speed=0.813x    frame=  131 fps= 23 q=12.0 size=     415kB time=00:00:04.83 bitrate= 703.0kbits/s speed=0.855x    frame=  147 fps= 24 q=12.0 size=     429kB time=00:00:05.46 bitrate= 643.1kbits/s speed=0.886x    frame=  163 fps= 24 q=12.0 size=     443kB time=00:00:06.11 bitrate= 593.0kbits/s speed=0.916x    frame=  179 fps= 25 q=12.0 size=     456kB time=00:00:06.74 bitrate= 554.7kbits/s speed=0.939x    frame=  191 fps= 25 q=12.0 size=     467kB time=00:00:07.23 bitrate= 528.5kbits/s speed=0.941x    frame=  204 fps= 25 q=12.0 size=     478kB time=00:00:07.75 bitrate= 504.9kbits/s speed=0.946x    frame=  217 fps= 25 q=12.0 size=     489kB time=00:00:08.28 bitrate= 484.2kbits/s speed=0.951x    frame=  230 fps= 25 q=12.0 size=     501kB time=00:00:08.77 bitrate= 467.2kbits/s speed=0.952x    frame=  242 fps= 25 q=12.0 size=     511kB time=00:00:09.27 bitrate= 451.4kbits/s speed=0.953x    frame=  255 fps= 25 q=19.0 size=     522kB time=00:00:09.79 bitrate= 436.8kbits/s speed=0.957x    frame=  268 fps= 25 q=12.0 size=     607kB time=00:00:10.29 bitrate= 483.1kbits/s speed=0.958x    frame=  281 fps= 25 q=12.0 size=     698kB time=00:00:10.81 bitrate= 529.0kbits/s speed=0.961x    frame=  293 fps= 25 q=12.0 size=     722kB time=00:00:11.31 bitrate= 523.0kbits/s speed=0.961x    frame=  306 fps= 25 q=12.0 size=     738kB time=00:00:11.83 bitrate= 511.0kbits/s speed=0.964x    frame=  319 fps= 25 q=12.0 size=     750kB time=00:00:12.35 bitrate= 497.1kbits/s speed=0.967x    frame=  331 fps= 25 q=12.0 size=     760kB time=00:00:12.82 bitrate= 485.5kbits/s speed=0.965x    frame=  344 fps= 25 q=12.0 size=     772kB time=00:00:13.35 bitrate= 473.6kbits/s speed=0.967x    frame=  357 fps= 25 q=12.0 size=     783kB time=00:00:13.87 bitrate= 462.6kbits/s speed=0.97x    frame=  370 fps= 25 q=12.0 size=     795kB time=00:00:14.39 bitrate= 452.3kbits/s speed=0.972x    frame=  382 fps= 25 q=12.0 size=     806kB time=00:00:14.89 bitrate= 443.2kbits/s speed=0.972x    frame=  395 fps= 25 q=12.0 size=     817kB time=00:00:15.38 bitrate= 434.9kbits/s speed=0.972x    frame=  408 fps= 25 q=12.0 size=     828kB time=00:00:15.91 bitrate= 426.5kbits/s speed=0.974x    frame=  420 fps= 25 q=12.0 size=     839kB time=00:00:16.40 bitrate= 419.0kbits/s speed=0.974x    frame=  433 fps= 25 q=12.0 size=     851kB time=00:00:16.92 bitrate= 411.7kbits/s speed=0.975x    frame=  446 fps= 25 q=12.0 size=     862kB time=00:00:17.42 bitrate= 405.2kbits/s speed=0.975x    frame=  458 fps= 25 q=12.0 size=     873kB time=00:00:17.92 bitrate= 398.9kbits/s speed=0.976x    frame=  471 fps= 25 q=12.0 size=     884kB time=00:00:18.44 bitrate= 392.7kbits/s speed=0.977x    frame=  484 fps= 25 q=12.0 size=     895kB time=00:00:18.94 bitrate= 387.3kbits/s speed=0.977x    frame=  496 fps= 25 q=12.0 size=     906kB time=00:00:19.43 bitrate= 381.9kbits/s speed=0.977x    frame=  509 fps= 25 q=14.0 size=     918kB time=00:00:19.95 bitrate= 376.7kbits/s speed=0.978x    frame=  522 fps= 25 q=12.0 size=    1021kB time=00:00:20.45 bitrate= 408.9kbits/s speed=0.978x    frame=  534 fps= 25 q=12.0 size=    1101kB time=00:00:20.95 bitrate= 430.6kbits/s speed=0.978x    frame=  547 fps= 25 q=12.0 size=    1124kB time=00:00:21.47 bitrate= 428.7kbits/s speed=0.979x    frame=  560 fps= 25 q=12.0 size=    1136kB time=00:00:21.99 bitrate= 423.2kbits/s speed=0.981x    frame=  573 fps= 25 q=12.0 size=    1148kB time=00:00:22.49 bitrate= 417.9kbits/s speed=0.981x    frame=  583 fps= 25 q=12.0 size=    1156kB time=00:00:22.91 bitrate= 413.5kbits/s speed=0.977x    frame=  583 fps= 24 q=12.0 size=    1156kB time=00:00:22.91 bitrate= 413.5kbits/s speed=0.956x    frame=  588 fps= 24 q=13.0 size=    1161kB time=00:00:23.09 bitrate= 411.8kbits/s speed=0.944x    frame=  604 fps= 24 q=12.0 size=    1175kB time=00:00:23.74 bitrate= 405.2kbits/s speed=0.951x    frame=  620 fps= 24 q=12.0 size=    1188kB time=00:00:24.37 bitrate= 399.4kbits/s speed=0.957x    frame=  636 fps= 24 q=12.0 size=    1202kB time=00:00:25.02 bitrate= 393.6kbits/s speed=0.963x    frame=  652 fps= 25 q=12.0 size=    1217kB time=00:00:25.65 bitrate= 388.5kbits/s speed=0.968x    frame=  668 fps= 25 q=12.0 size=    1231kB time=00:00:26.30 bitrate= 383.2kbits/s speed=0.974x    frame=  684 fps= 25 q=12.0 size=    1245kB time=00:00:26.93 bitrate= 378.6kbits/s speed=0.979x    frame=  699 fps= 25 q=12.0 size=    1258kB time=00:00:27.56 bitrate= 373.9kbits/s speed=0.984x    frame=  712 fps= 25 q=12.0 size=    1270kB time=00:00:28.08 bitrate= 370.3kbits/s speed=0.985x    frame=  725 fps= 25 q=12.0 size=    1281kB time=00:00:28.60 bitrate= 366.8kbits/s speed=0.985x    frame=  738 fps= 25 q=12.0 size=    1292kB time=00:00:29.10 bitrate= 363.7kbits/s speed=0.985x    frame=  750 fps= 25 q=12.0 size=    1303kB time=00:00:29.59 bitrate= 360.6kbits/s speed=0.985x    frame=  764 fps= 25 q=12.0 size=    1382kB time=00:00:30.12 bitrate= 375.8kbits/s speed=0.986x    frame=  776 fps= 25 q=12.0 size=    1457kB time=00:00:30.64 bitrate= 389.4kbits/s speed=0.986x    frame=  789 fps= 25 q=12.0 size=    1502kB time=00:00:31.13 bitrate= 395.1kbits/s speed=0.986x    frame=  802 fps= 25 q=12.0 size=    1523kB time=00:00:31.66 bitrate= 394.1kbits/s speed=0.986x    frame=  814 fps= 25 q=12.0 size=    1534kB time=00:00:32.15 bitrate= 390.7kbits/s speed=0.986x    frame=  827 fps= 25 q=12.0 size=    1545kB time=00:00:32.68 bitrate= 387.3kbits/s speed=0.987x    frame=  840 fps= 25 q=12.0 size=    1556kB time=00:00:33.17 bitrate= 384.3kbits/s speed=0.987x    frame=  852 fps= 25 q=12.0 size=    1567kB time=00:00:33.67 bitrate= 381.2kbits/s speed=0.987x    frame=  865 fps= 25 q=12.0 size=    1578kB time=00:00:34.19 bitrate= 378.1kbits/s speed=0.987x    frame=  878 fps= 25 q=12.0 size=    1589kB time=00:00:34.71 bitrate= 375.0kbits/s speed=0.988x    frame=  891 fps= 25 q=12.0 size=    1601kB time=00:00:35.21 bitrate= 372.3kbits/s speed=0.988x    frame=  903 fps= 25 q=12.0 size=    1611kB time=00:00:35.71 bitrate= 369.6kbits/s speed=0.987x    frame=  916 fps= 25 q=12.0 size=    1622kB time=00:00:36.23 bitrate= 366.8kbits/s speed=0.988x    frame=  929 fps= 25 q=12.0 size=    1634kB time=00:00:36.75 bitrate= 364.1kbits/s speed=0.989x    [flv @ 000002091498dc40] Failed to update header with correct duration.
[flv @ 000002091498dc40] Failed to update header with correct filesize.
frame=  937 fps= 25 q=-1.0 Lsize=    1647kB time=00:00:37.44 bitrate= 360.4kbits/s speed=0.998x    
video:1026kB audio:581kB subtitle:0kB other streams:0kB global headers:0kB muxing overhead: 2.548056%
[libx264 @ 00000209149996c0] frame I:4     Avg QP:26.20  size: 64514
[libx264 @ 00000209149996c0] frame P:933   Avg QP:13.60  size:   848
[libx264 @ 00000209149996c0] mb I  I16..4: 100.0%  0.0%  0.0%
[libx264 @ 00000209149996c0] mb P  I16..4:  0.6%  0.0%  0.0%  P16..4:  0.8%  0.0%  0.0%  0.0%  0.0%    skip:98.6%
[libx264 @ 00000209149996c0] coded y,u,v intra: 5.7% 2.8% 1.2% inter: 0.3% 0.1% 0.0%
[libx264 @ 00000209149996c0] i16 v,h,dc,p: 73% 24%  1%  1%
[libx264 @ 00000209149996c0] kb/s:224.03
Exiting normally, received signal 15.
